<mxfile host="app.diagrams.net" agent="Mozilla/5.0 (Windows NT 10.0; Win64; x64) AppleWebKit/537.36 (KHTML, like Gecko) Chrome/133.0.0.0 Safari/537.36" version="26.0.11">
  <diagram name="Page-1" id="GjXaAK51BsQgia7fTtma">
    <mxGraphModel dx="1500" dy="994" grid="1" gridSize="10" guides="1" tooltips="1" connect="1" arrows="1" fold="1" page="1" pageScale="1" pageWidth="827" pageHeight="1169" math="0" shadow="0">
      <root>
        <mxCell id="0" />
        <mxCell id="1" parent="0" />
        <mxCell id="0ewMuvjCuJerf0oYQKk--1" value="&amp;lt;&amp;lt;system&amp;gt; Saigonchildren M2M" style="shape=umlFrame;whiteSpace=wrap;html=1;pointerEvents=0;width=216;height=30;" vertex="1" parent="1">
          <mxGeometry x="264" y="160" width="876" height="1110" as="geometry" />
        </mxCell>
        <mxCell id="0ewMuvjCuJerf0oYQKk--26" style="rounded=0;orthogonalLoop=1;jettySize=auto;html=1;entryX=0;entryY=0.5;entryDx=0;entryDy=0;endArrow=none;startFill=0;" edge="1" parent="1" target="0ewMuvjCuJerf0oYQKk--9">
          <mxGeometry relative="1" as="geometry">
            <mxPoint x="120" y="520" as="sourcePoint" />
            <Array as="points">
              <mxPoint x="340" y="240" />
            </Array>
          </mxGeometry>
        </mxCell>
        <mxCell id="0ewMuvjCuJerf0oYQKk--2" value="Operator (Admin)" style="shape=umlActor;verticalLabelPosition=bottom;verticalAlign=top;html=1;" vertex="1" parent="1">
          <mxGeometry x="80" y="485" width="30" height="60" as="geometry" />
        </mxCell>
        <mxCell id="0ewMuvjCuJerf0oYQKk--57" style="rounded=0;orthogonalLoop=1;jettySize=auto;html=1;entryX=1;entryY=0.5;entryDx=0;entryDy=0;endArrow=none;startFill=0;" edge="1" parent="1" target="0ewMuvjCuJerf0oYQKk--51">
          <mxGeometry relative="1" as="geometry">
            <mxPoint x="1250" y="750" as="sourcePoint" />
          </mxGeometry>
        </mxCell>
        <mxCell id="0ewMuvjCuJerf0oYQKk--67" style="rounded=0;orthogonalLoop=1;jettySize=auto;html=1;entryX=1;entryY=0.5;entryDx=0;entryDy=0;endArrow=none;startFill=0;" edge="1" parent="1" target="0ewMuvjCuJerf0oYQKk--9">
          <mxGeometry relative="1" as="geometry">
            <mxPoint x="1250" y="750" as="sourcePoint" />
            <Array as="points" />
          </mxGeometry>
        </mxCell>
        <mxCell id="0ewMuvjCuJerf0oYQKk--109" style="rounded=0;orthogonalLoop=1;jettySize=auto;html=1;entryX=0.93;entryY=0.652;entryDx=0;entryDy=0;entryPerimeter=0;endArrow=none;startFill=0;" edge="1" parent="1" target="0ewMuvjCuJerf0oYQKk--111">
          <mxGeometry relative="1" as="geometry">
            <mxPoint x="1250" y="750" as="sourcePoint" />
          </mxGeometry>
        </mxCell>
        <mxCell id="0ewMuvjCuJerf0oYQKk--3" value="Mentee" style="shape=umlActor;verticalLabelPosition=bottom;verticalAlign=top;html=1;" vertex="1" parent="1">
          <mxGeometry x="1256" y="715" width="30" height="60" as="geometry" />
        </mxCell>
        <mxCell id="0ewMuvjCuJerf0oYQKk--62" style="rounded=0;orthogonalLoop=1;jettySize=auto;html=1;entryX=1;entryY=0.5;entryDx=0;entryDy=0;endArrow=none;startFill=0;" edge="1" parent="1" target="0ewMuvjCuJerf0oYQKk--58">
          <mxGeometry relative="1" as="geometry">
            <mxPoint x="1250" y="510" as="sourcePoint" />
          </mxGeometry>
        </mxCell>
        <mxCell id="0ewMuvjCuJerf0oYQKk--68" style="rounded=0;orthogonalLoop=1;jettySize=auto;html=1;entryX=1;entryY=0.5;entryDx=0;entryDy=0;endArrow=none;startFill=0;" edge="1" parent="1" target="0ewMuvjCuJerf0oYQKk--9">
          <mxGeometry relative="1" as="geometry">
            <mxPoint x="1250" y="510" as="sourcePoint" />
            <Array as="points" />
          </mxGeometry>
        </mxCell>
        <mxCell id="0ewMuvjCuJerf0oYQKk--6" value="Mentor" style="shape=umlActor;verticalLabelPosition=bottom;verticalAlign=top;html=1;" vertex="1" parent="1">
          <mxGeometry x="1256" y="470" width="30" height="60" as="geometry" />
        </mxCell>
        <mxCell id="0ewMuvjCuJerf0oYQKk--9" value="Login" style="ellipse;whiteSpace=wrap;html=1;" vertex="1" parent="1">
          <mxGeometry x="720" y="225" width="120" height="30" as="geometry" />
        </mxCell>
        <mxCell id="0ewMuvjCuJerf0oYQKk--28" value="CREATE/ READ/ UPDATE" style="shape=note;whiteSpace=wrap;html=1;backgroundOutline=1;darkOpacity=0.05;size=12;fontSize=7;fontStyle=2" vertex="1" parent="1">
          <mxGeometry x="420" y="345" width="120" height="25" as="geometry" />
        </mxCell>
        <mxCell id="0ewMuvjCuJerf0oYQKk--29" style="rounded=0;orthogonalLoop=1;jettySize=auto;html=1;entryX=0.5;entryY=1;entryDx=0;entryDy=0;entryPerimeter=0;endArrow=none;startFill=0;dashed=1;exitX=0.785;exitY=0.12;exitDx=0;exitDy=0;exitPerimeter=0;" edge="1" parent="1" source="0ewMuvjCuJerf0oYQKk--40" target="0ewMuvjCuJerf0oYQKk--28">
          <mxGeometry relative="1" as="geometry">
            <mxPoint x="397.947297691822" y="401.3679419652542" as="sourcePoint" />
          </mxGeometry>
        </mxCell>
        <mxCell id="0ewMuvjCuJerf0oYQKk--31" value="Manage documents" style="ellipse;whiteSpace=wrap;html=1;" vertex="1" parent="1">
          <mxGeometry x="380" y="510" width="140" height="30" as="geometry" />
        </mxCell>
        <mxCell id="0ewMuvjCuJerf0oYQKk--32" value="CREATE/ READ/ UPDATE" style="shape=note;whiteSpace=wrap;html=1;backgroundOutline=1;darkOpacity=0.05;size=12;fontSize=7;fontStyle=2" vertex="1" parent="1">
          <mxGeometry x="480" y="450" width="120" height="25" as="geometry" />
        </mxCell>
        <mxCell id="0ewMuvjCuJerf0oYQKk--33" style="rounded=0;orthogonalLoop=1;jettySize=auto;html=1;entryX=0.5;entryY=1;entryDx=0;entryDy=0;entryPerimeter=0;endArrow=none;startFill=0;dashed=1;exitX=1;exitY=0;exitDx=0;exitDy=0;" edge="1" parent="1" source="0ewMuvjCuJerf0oYQKk--31" target="0ewMuvjCuJerf0oYQKk--32">
          <mxGeometry relative="1" as="geometry">
            <mxPoint x="429" y="413" as="sourcePoint" />
            <mxPoint x="460" y="380" as="targetPoint" />
          </mxGeometry>
        </mxCell>
        <mxCell id="0ewMuvjCuJerf0oYQKk--35" style="rounded=0;orthogonalLoop=1;jettySize=auto;html=1;entryX=0;entryY=0;entryDx=0;entryDy=0;endArrow=none;startFill=0;" edge="1" parent="1" target="0ewMuvjCuJerf0oYQKk--31">
          <mxGeometry relative="1" as="geometry">
            <mxPoint x="120" y="520" as="sourcePoint" />
            <mxPoint x="351" y="420" as="targetPoint" />
          </mxGeometry>
        </mxCell>
        <mxCell id="0ewMuvjCuJerf0oYQKk--40" value="Manage users" style="ellipse;whiteSpace=wrap;html=1;" vertex="1" parent="1">
          <mxGeometry x="370" y="385" width="140" height="25" as="geometry" />
        </mxCell>
        <mxCell id="0ewMuvjCuJerf0oYQKk--43" style="rounded=0;orthogonalLoop=1;jettySize=auto;html=1;entryX=0;entryY=0.5;entryDx=0;entryDy=0;endArrow=none;startFill=0;" edge="1" parent="1" target="0ewMuvjCuJerf0oYQKk--40">
          <mxGeometry relative="1" as="geometry">
            <mxPoint x="120" y="520" as="sourcePoint" />
            <mxPoint x="347" y="554" as="targetPoint" />
          </mxGeometry>
        </mxCell>
        <mxCell id="0ewMuvjCuJerf0oYQKk--44" value="Resource hub documents" style="ellipse;whiteSpace=wrap;html=1;" vertex="1" parent="1">
          <mxGeometry x="310" y="585" width="140" height="35" as="geometry" />
        </mxCell>
        <mxCell id="0ewMuvjCuJerf0oYQKk--47" style="edgeStyle=orthogonalEdgeStyle;rounded=0;orthogonalLoop=1;jettySize=auto;html=1;entryX=0.5;entryY=1;entryDx=0;entryDy=0;endArrow=block;endFill=0;startFill=0;" edge="1" parent="1" source="0ewMuvjCuJerf0oYQKk--45" target="0ewMuvjCuJerf0oYQKk--31">
          <mxGeometry relative="1" as="geometry" />
        </mxCell>
        <mxCell id="0ewMuvjCuJerf0oYQKk--45" value="Agreement documents" style="ellipse;whiteSpace=wrap;html=1;" vertex="1" parent="1">
          <mxGeometry x="460" y="585" width="140" height="35" as="geometry" />
        </mxCell>
        <mxCell id="0ewMuvjCuJerf0oYQKk--48" style="edgeStyle=orthogonalEdgeStyle;rounded=0;orthogonalLoop=1;jettySize=auto;html=1;entryX=0.5;entryY=1;entryDx=0;entryDy=0;endArrow=block;endFill=0;startFill=0;exitX=0.5;exitY=0;exitDx=0;exitDy=0;" edge="1" parent="1" source="0ewMuvjCuJerf0oYQKk--44" target="0ewMuvjCuJerf0oYQKk--31">
          <mxGeometry relative="1" as="geometry">
            <mxPoint x="540" y="595" as="sourcePoint" />
            <mxPoint x="460" y="550" as="targetPoint" />
          </mxGeometry>
        </mxCell>
        <mxCell id="0ewMuvjCuJerf0oYQKk--50" value="Validate SUN" style="ellipse;whiteSpace=wrap;html=1;" vertex="1" parent="1">
          <mxGeometry x="740" y="595" width="120" height="30" as="geometry" />
        </mxCell>
        <mxCell id="0ewMuvjCuJerf0oYQKk--56" style="rounded=0;orthogonalLoop=1;jettySize=auto;html=1;dashed=1;endArrow=open;endFill=0;" edge="1" parent="1" source="0ewMuvjCuJerf0oYQKk--51" target="0ewMuvjCuJerf0oYQKk--50">
          <mxGeometry relative="1" as="geometry" />
        </mxCell>
        <mxCell id="0ewMuvjCuJerf0oYQKk--66" value="&amp;lt;&amp;lt;include&amp;gt;&amp;gt;" style="edgeLabel;html=1;align=center;verticalAlign=middle;resizable=0;points=[];" vertex="1" connectable="0" parent="0ewMuvjCuJerf0oYQKk--56">
          <mxGeometry x="0.1094" relative="1" as="geometry">
            <mxPoint as="offset" />
          </mxGeometry>
        </mxCell>
        <mxCell id="0ewMuvjCuJerf0oYQKk--61" style="rounded=0;orthogonalLoop=1;jettySize=auto;html=1;endArrow=block;endFill=0;" edge="1" parent="1" source="0ewMuvjCuJerf0oYQKk--51" target="0ewMuvjCuJerf0oYQKk--58">
          <mxGeometry relative="1" as="geometry" />
        </mxCell>
        <mxCell id="0ewMuvjCuJerf0oYQKk--51" value="Mentee sign up" style="ellipse;whiteSpace=wrap;html=1;" vertex="1" parent="1">
          <mxGeometry x="930" y="545" width="120" height="30" as="geometry" />
        </mxCell>
        <mxCell id="0ewMuvjCuJerf0oYQKk--52" value="Each child has unique number in Saigonchildren so then we validate them to participate in program" style="shape=note;whiteSpace=wrap;html=1;backgroundOutline=1;darkOpacity=0.05;size=12;fontSize=7;fontStyle=2" vertex="1" parent="1">
          <mxGeometry x="680" y="505" width="160" height="40" as="geometry" />
        </mxCell>
        <mxCell id="0ewMuvjCuJerf0oYQKk--53" style="rounded=0;orthogonalLoop=1;jettySize=auto;html=1;entryX=0.411;entryY=1.062;entryDx=0;entryDy=0;entryPerimeter=0;endArrow=none;startFill=0;dashed=1;" edge="1" parent="1" source="0ewMuvjCuJerf0oYQKk--50" target="0ewMuvjCuJerf0oYQKk--52">
          <mxGeometry relative="1" as="geometry">
            <mxPoint x="420" y="400" as="sourcePoint" />
            <mxPoint x="420" y="380" as="targetPoint" />
          </mxGeometry>
        </mxCell>
        <mxCell id="0ewMuvjCuJerf0oYQKk--58" value="Sign up" style="ellipse;whiteSpace=wrap;html=1;" vertex="1" parent="1">
          <mxGeometry x="930" y="475" width="120" height="30" as="geometry" />
        </mxCell>
        <mxCell id="0ewMuvjCuJerf0oYQKk--69" value="CREATE/ READ/ UPDATE" style="shape=note;whiteSpace=wrap;html=1;backgroundOutline=1;darkOpacity=0.05;size=12;fontSize=7;fontStyle=2" vertex="1" parent="1">
          <mxGeometry x="415" y="650" width="120" height="25" as="geometry" />
        </mxCell>
        <mxCell id="0ewMuvjCuJerf0oYQKk--70" value="Manage reviews&lt;span style=&quot;color: rgba(0, 0, 0, 0); font-family: monospace; font-size: 0px; text-align: start; text-wrap-mode: nowrap;&quot;&gt;%3CmxGraphModel%3E%3Croot%3E%3CmxCell%20id%3D%220%22%2F%3E%3CmxCell%20id%3D%221%22%20parent%3D%220%22%2F%3E%3CmxCell%20id%3D%222%22%20value%3D%22CREATE%2F%20READ%2F%20UPDATE%22%20style%3D%22shape%3Dnote%3BwhiteSpace%3Dwrap%3Bhtml%3D1%3BbackgroundOutline%3D1%3BdarkOpacity%3D0.05%3Bsize%3D12%3BfontSize%3D7%3BfontStyle%3D2%22%20vertex%3D%221%22%20parent%3D%221%22%3E%3CmxGeometry%20x%3D%22420%22%20y%3D%22345%22%20width%3D%22120%22%20height%3D%2225%22%20as%3D%22geometry%22%2F%3E%3C%2FmxCell%3E%3CmxCell%20id%3D%223%22%20value%3D%22Manage%20users%22%20style%3D%22ellipse%3BwhiteSpace%3Dwrap%3Bhtml%3D1%3B%22%20vertex%3D%221%22%20parent%3D%221%22%3E%3CmxGeometry%20x%3D%22370%22%20y%3D%22385%22%20width%3D%22140%22%20height%3D%2245%22%20as%3D%22geometry%22%2F%3E%3C%2FmxCell%3E%3C%2Froot%3E%3C%2FmxGraphModel%3E&lt;/span&gt;" style="ellipse;whiteSpace=wrap;html=1;" vertex="1" parent="1">
          <mxGeometry x="344" y="690" width="140" height="30" as="geometry" />
        </mxCell>
        <mxCell id="0ewMuvjCuJerf0oYQKk--71" value="CREATE/ READ/ UPDATE" style="shape=note;whiteSpace=wrap;html=1;backgroundOutline=1;darkOpacity=0.05;size=12;fontSize=7;fontStyle=2" vertex="1" parent="1">
          <mxGeometry x="420" y="750" width="120" height="25" as="geometry" />
        </mxCell>
        <mxCell id="0ewMuvjCuJerf0oYQKk--72" value="Manage tasks" style="ellipse;whiteSpace=wrap;html=1;" vertex="1" parent="1">
          <mxGeometry x="344" y="790" width="140" height="30" as="geometry" />
        </mxCell>
        <mxCell id="0ewMuvjCuJerf0oYQKk--73" style="rounded=0;orthogonalLoop=1;jettySize=auto;html=1;entryX=0.5;entryY=1;entryDx=0;entryDy=0;entryPerimeter=0;endArrow=none;startFill=0;dashed=1;exitX=1;exitY=0;exitDx=0;exitDy=0;" edge="1" parent="1" source="0ewMuvjCuJerf0oYQKk--70" target="0ewMuvjCuJerf0oYQKk--69">
          <mxGeometry relative="1" as="geometry">
            <mxPoint x="510" y="507" as="sourcePoint" />
            <mxPoint x="550" y="485" as="targetPoint" />
          </mxGeometry>
        </mxCell>
        <mxCell id="0ewMuvjCuJerf0oYQKk--74" style="rounded=0;orthogonalLoop=1;jettySize=auto;html=1;entryX=0.5;entryY=1;entryDx=0;entryDy=0;entryPerimeter=0;endArrow=none;startFill=0;dashed=1;exitX=0.5;exitY=0;exitDx=0;exitDy=0;" edge="1" parent="1" source="0ewMuvjCuJerf0oYQKk--72" target="0ewMuvjCuJerf0oYQKk--71">
          <mxGeometry relative="1" as="geometry">
            <mxPoint x="473" y="707" as="sourcePoint" />
            <mxPoint x="485" y="685" as="targetPoint" />
          </mxGeometry>
        </mxCell>
        <mxCell id="0ewMuvjCuJerf0oYQKk--75" style="rounded=0;orthogonalLoop=1;jettySize=auto;html=1;entryX=0;entryY=0.5;entryDx=0;entryDy=0;endArrow=none;startFill=0;" edge="1" parent="1" target="0ewMuvjCuJerf0oYQKk--70">
          <mxGeometry relative="1" as="geometry">
            <mxPoint x="120" y="520" as="sourcePoint" />
            <mxPoint x="380" y="418" as="targetPoint" />
          </mxGeometry>
        </mxCell>
        <mxCell id="0ewMuvjCuJerf0oYQKk--76" style="rounded=0;orthogonalLoop=1;jettySize=auto;html=1;endArrow=none;startFill=0;entryX=0;entryY=0.5;entryDx=0;entryDy=0;" edge="1" parent="1" target="0ewMuvjCuJerf0oYQKk--72">
          <mxGeometry relative="1" as="geometry">
            <mxPoint x="120" y="520" as="sourcePoint" />
            <mxPoint x="354" y="723" as="targetPoint" />
          </mxGeometry>
        </mxCell>
        <mxCell id="0ewMuvjCuJerf0oYQKk--78" value="Manage matches" style="ellipse;whiteSpace=wrap;html=1;" vertex="1" parent="1">
          <mxGeometry x="340" y="910" width="140" height="30" as="geometry" />
        </mxCell>
        <mxCell id="0ewMuvjCuJerf0oYQKk--91" value="CREATE/ READ/ UPDATE" style="shape=note;whiteSpace=wrap;html=1;backgroundOutline=1;darkOpacity=0.05;size=12;fontSize=7;fontStyle=2" vertex="1" parent="1">
          <mxGeometry x="440" y="860" width="120" height="25" as="geometry" />
        </mxCell>
        <mxCell id="0ewMuvjCuJerf0oYQKk--92" style="rounded=0;orthogonalLoop=1;jettySize=auto;html=1;entryX=0.5;entryY=1;entryDx=0;entryDy=0;entryPerimeter=0;endArrow=none;startFill=0;dashed=1;exitX=0.5;exitY=0;exitDx=0;exitDy=0;" edge="1" parent="1" source="0ewMuvjCuJerf0oYQKk--78" target="0ewMuvjCuJerf0oYQKk--91">
          <mxGeometry relative="1" as="geometry">
            <mxPoint x="424" y="800" as="sourcePoint" />
            <mxPoint x="490" y="785" as="targetPoint" />
          </mxGeometry>
        </mxCell>
        <mxCell id="0ewMuvjCuJerf0oYQKk--93" value="Manage groups in match" style="ellipse;whiteSpace=wrap;html=1;" vertex="1" parent="1">
          <mxGeometry x="570" y="925" width="140" height="35" as="geometry" />
        </mxCell>
        <mxCell id="0ewMuvjCuJerf0oYQKk--100" style="rounded=0;orthogonalLoop=1;jettySize=auto;html=1;endArrow=none;startFill=0;entryX=0;entryY=0.5;entryDx=0;entryDy=0;" edge="1" parent="1" target="0ewMuvjCuJerf0oYQKk--78">
          <mxGeometry relative="1" as="geometry">
            <mxPoint x="120" y="520" as="sourcePoint" />
            <mxPoint x="354" y="823" as="targetPoint" />
          </mxGeometry>
        </mxCell>
        <mxCell id="0ewMuvjCuJerf0oYQKk--101" style="rounded=0;orthogonalLoop=1;jettySize=auto;html=1;dashed=1;endArrow=open;endFill=0;entryX=0.975;entryY=0.621;entryDx=0;entryDy=0;entryPerimeter=0;exitX=0;exitY=0.5;exitDx=0;exitDy=0;" edge="1" parent="1" source="0ewMuvjCuJerf0oYQKk--93" target="0ewMuvjCuJerf0oYQKk--78">
          <mxGeometry relative="1" as="geometry">
            <mxPoint x="959" y="634" as="sourcePoint" />
            <mxPoint x="871" y="611" as="targetPoint" />
          </mxGeometry>
        </mxCell>
        <mxCell id="0ewMuvjCuJerf0oYQKk--102" value="&amp;lt;&amp;lt;extend&amp;gt;&amp;gt;" style="edgeLabel;html=1;align=center;verticalAlign=middle;resizable=0;points=[];" vertex="1" connectable="0" parent="0ewMuvjCuJerf0oYQKk--101">
          <mxGeometry x="0.1094" relative="1" as="geometry">
            <mxPoint as="offset" />
          </mxGeometry>
        </mxCell>
        <mxCell id="0ewMuvjCuJerf0oYQKk--103" value="Manage group tasks" style="ellipse;whiteSpace=wrap;html=1;" vertex="1" parent="1">
          <mxGeometry x="880" y="705" width="120" height="30" as="geometry" />
        </mxCell>
        <mxCell id="0ewMuvjCuJerf0oYQKk--110" style="rounded=0;orthogonalLoop=1;jettySize=auto;html=1;entryX=1;entryY=0;entryDx=0;entryDy=0;endArrow=none;startFill=0;" edge="1" parent="1" target="0ewMuvjCuJerf0oYQKk--103">
          <mxGeometry relative="1" as="geometry">
            <mxPoint x="1250" y="510" as="sourcePoint" />
            <mxPoint x="1030" y="910" as="targetPoint" />
          </mxGeometry>
        </mxCell>
        <mxCell id="0ewMuvjCuJerf0oYQKk--111" value="View assigned task" style="ellipse;whiteSpace=wrap;html=1;" vertex="1" parent="1">
          <mxGeometry x="960" y="1040" width="120" height="30" as="geometry" />
        </mxCell>
        <mxCell id="0ewMuvjCuJerf0oYQKk--112" value="CREATE/ READ/ UPDATE" style="shape=note;whiteSpace=wrap;html=1;backgroundOutline=1;darkOpacity=0.05;size=12;fontSize=7;fontStyle=2" vertex="1" parent="1">
          <mxGeometry x="740" y="675" width="120" height="25" as="geometry" />
        </mxCell>
        <mxCell id="0ewMuvjCuJerf0oYQKk--113" style="rounded=0;orthogonalLoop=1;jettySize=auto;html=1;entryX=0.5;entryY=1;entryDx=0;entryDy=0;entryPerimeter=0;endArrow=none;startFill=0;dashed=1;exitX=0;exitY=0;exitDx=0;exitDy=0;" edge="1" parent="1" source="0ewMuvjCuJerf0oYQKk--103" target="0ewMuvjCuJerf0oYQKk--112">
          <mxGeometry relative="1" as="geometry">
            <mxPoint x="424" y="800" as="sourcePoint" />
            <mxPoint x="490" y="785" as="targetPoint" />
          </mxGeometry>
        </mxCell>
        <mxCell id="0ewMuvjCuJerf0oYQKk--114" value="Update assigned task" style="ellipse;whiteSpace=wrap;html=1;" vertex="1" parent="1">
          <mxGeometry x="960" y="1090" width="120" height="30" as="geometry" />
        </mxCell>
        <mxCell id="0ewMuvjCuJerf0oYQKk--116" style="rounded=0;orthogonalLoop=1;jettySize=auto;html=1;entryX=1;entryY=0.5;entryDx=0;entryDy=0;endArrow=none;startFill=0;" edge="1" parent="1" target="0ewMuvjCuJerf0oYQKk--114">
          <mxGeometry relative="1" as="geometry">
            <mxPoint x="1250" y="750" as="sourcePoint" />
            <mxPoint x="1032" y="880" as="targetPoint" />
          </mxGeometry>
        </mxCell>
        <mxCell id="0ewMuvjCuJerf0oYQKk--118" value="View group info" style="ellipse;whiteSpace=wrap;html=1;" vertex="1" parent="1">
          <mxGeometry x="960" y="895" width="120" height="30" as="geometry" />
        </mxCell>
        <mxCell id="0ewMuvjCuJerf0oYQKk--119" value="View mentor detail" style="ellipse;whiteSpace=wrap;html=1;" vertex="1" parent="1">
          <mxGeometry x="750" y="850" width="120" height="30" as="geometry" />
        </mxCell>
        <mxCell id="0ewMuvjCuJerf0oYQKk--120" value="View mentee detail" style="ellipse;whiteSpace=wrap;html=1;" vertex="1" parent="1">
          <mxGeometry x="740" y="970" width="120" height="30" as="geometry" />
        </mxCell>
        <mxCell id="0ewMuvjCuJerf0oYQKk--124" value="Create mentor review" style="ellipse;whiteSpace=wrap;html=1;" vertex="1" parent="1">
          <mxGeometry x="960" y="990" width="120" height="30" as="geometry" />
        </mxCell>
        <mxCell id="0ewMuvjCuJerf0oYQKk--125" value="Create mentee review" style="ellipse;whiteSpace=wrap;html=1;" vertex="1" parent="1">
          <mxGeometry x="960" y="797.5" width="120" height="30" as="geometry" />
        </mxCell>
        <mxCell id="0ewMuvjCuJerf0oYQKk--143" value="CREATE/ READ/ UPDATE" style="shape=note;whiteSpace=wrap;html=1;backgroundOutline=1;darkOpacity=0.05;size=12;fontSize=7;fontStyle=2" vertex="1" parent="1">
          <mxGeometry x="530" y="1010" width="120" height="25" as="geometry" />
        </mxCell>
        <mxCell id="0ewMuvjCuJerf0oYQKk--144" style="rounded=0;orthogonalLoop=1;jettySize=auto;html=1;entryX=0.5;entryY=1;entryDx=0;entryDy=0;endArrow=none;startFill=0;dashed=1;exitX=0;exitY=0;exitDx=54;exitDy=0;exitPerimeter=0;" edge="1" parent="1" source="0ewMuvjCuJerf0oYQKk--143" target="0ewMuvjCuJerf0oYQKk--93">
          <mxGeometry relative="1" as="geometry">
            <mxPoint x="420" y="920" as="sourcePoint" />
            <mxPoint x="510" y="895" as="targetPoint" />
          </mxGeometry>
        </mxCell>
        <mxCell id="0ewMuvjCuJerf0oYQKk--145" style="rounded=0;orthogonalLoop=1;jettySize=auto;html=1;entryX=1;entryY=0.5;entryDx=0;entryDy=0;endArrow=none;startFill=0;dashed=1;startArrow=open;exitX=0;exitY=0.5;exitDx=0;exitDy=0;" edge="1" parent="1" source="0ewMuvjCuJerf0oYQKk--118" target="0ewMuvjCuJerf0oYQKk--119">
          <mxGeometry relative="1" as="geometry">
            <mxPoint x="594" y="1020" as="sourcePoint" />
            <mxPoint x="670" y="980" as="targetPoint" />
          </mxGeometry>
        </mxCell>
        <mxCell id="0ewMuvjCuJerf0oYQKk--147" value="&amp;lt;&amp;lt;extend&amp;gt;&amp;gt;" style="edgeLabel;html=1;align=center;verticalAlign=middle;resizable=0;points=[];" vertex="1" connectable="0" parent="0ewMuvjCuJerf0oYQKk--145">
          <mxGeometry x="0.2385" y="1" relative="1" as="geometry">
            <mxPoint as="offset" />
          </mxGeometry>
        </mxCell>
        <mxCell id="0ewMuvjCuJerf0oYQKk--146" style="rounded=0;orthogonalLoop=1;jettySize=auto;html=1;entryX=0.978;entryY=0.606;entryDx=0;entryDy=0;endArrow=none;startFill=0;dashed=1;startArrow=open;entryPerimeter=0;exitX=0;exitY=0.5;exitDx=0;exitDy=0;" edge="1" parent="1" source="0ewMuvjCuJerf0oYQKk--118" target="0ewMuvjCuJerf0oYQKk--120">
          <mxGeometry relative="1" as="geometry">
            <mxPoint x="992" y="908" as="sourcePoint" />
            <mxPoint x="880" y="875" as="targetPoint" />
          </mxGeometry>
        </mxCell>
        <mxCell id="0ewMuvjCuJerf0oYQKk--148" value="&amp;lt;&amp;lt;extend&amp;gt;&amp;gt;" style="edgeLabel;html=1;align=center;verticalAlign=middle;resizable=0;points=[];" vertex="1" connectable="0" parent="0ewMuvjCuJerf0oYQKk--146">
          <mxGeometry x="0.1097" y="-2" relative="1" as="geometry">
            <mxPoint as="offset" />
          </mxGeometry>
        </mxCell>
        <mxCell id="0ewMuvjCuJerf0oYQKk--149" style="rounded=0;orthogonalLoop=1;jettySize=auto;html=1;endArrow=none;startFill=0;" edge="1" parent="1">
          <mxGeometry relative="1" as="geometry">
            <mxPoint x="1250" y="750" as="sourcePoint" />
            <mxPoint x="1080" y="910" as="targetPoint" />
          </mxGeometry>
        </mxCell>
        <mxCell id="0ewMuvjCuJerf0oYQKk--151" style="rounded=0;orthogonalLoop=1;jettySize=auto;html=1;entryX=1;entryY=0.5;entryDx=0;entryDy=0;endArrow=none;startFill=0;" edge="1" parent="1" target="0ewMuvjCuJerf0oYQKk--118">
          <mxGeometry relative="1" as="geometry">
            <mxPoint x="1250" y="510" as="sourcePoint" />
            <mxPoint x="1085" y="923" as="targetPoint" />
          </mxGeometry>
        </mxCell>
        <mxCell id="0ewMuvjCuJerf0oYQKk--152" style="rounded=0;orthogonalLoop=1;jettySize=auto;html=1;entryX=1;entryY=0.5;entryDx=0;entryDy=0;endArrow=none;startFill=0;" edge="1" parent="1" target="0ewMuvjCuJerf0oYQKk--125">
          <mxGeometry relative="1" as="geometry">
            <mxPoint x="1250" y="510" as="sourcePoint" />
            <mxPoint x="1090" y="920" as="targetPoint" />
          </mxGeometry>
        </mxCell>
        <mxCell id="0ewMuvjCuJerf0oYQKk--153" value="View group document" style="ellipse;whiteSpace=wrap;html=1;" vertex="1" parent="1">
          <mxGeometry x="960" y="1139" width="120" height="30" as="geometry" />
        </mxCell>
        <mxCell id="0ewMuvjCuJerf0oYQKk--154" value="View mentor review" style="ellipse;whiteSpace=wrap;html=1;" vertex="1" parent="1">
          <mxGeometry x="960" y="1190" width="120" height="30" as="geometry" />
        </mxCell>
        <mxCell id="0ewMuvjCuJerf0oYQKk--155" style="rounded=0;orthogonalLoop=1;jettySize=auto;html=1;entryX=1;entryY=0.5;entryDx=0;entryDy=0;endArrow=none;startFill=0;" edge="1" parent="1" target="0ewMuvjCuJerf0oYQKk--153">
          <mxGeometry relative="1" as="geometry">
            <mxPoint x="1250" y="750" as="sourcePoint" />
            <mxPoint x="1090" y="1115" as="targetPoint" />
          </mxGeometry>
        </mxCell>
        <mxCell id="0ewMuvjCuJerf0oYQKk--156" style="rounded=0;orthogonalLoop=1;jettySize=auto;html=1;entryX=1;entryY=0.5;entryDx=0;entryDy=0;endArrow=none;startFill=0;" edge="1" parent="1" target="0ewMuvjCuJerf0oYQKk--154">
          <mxGeometry relative="1" as="geometry">
            <mxPoint x="1250" y="750" as="sourcePoint" />
            <mxPoint x="1090" y="1164" as="targetPoint" />
          </mxGeometry>
        </mxCell>
        <mxCell id="0ewMuvjCuJerf0oYQKk--157" value="Manage group document" style="ellipse;whiteSpace=wrap;html=1;" vertex="1" parent="1">
          <mxGeometry x="960" y="747.5" width="120" height="30" as="geometry" />
        </mxCell>
        <mxCell id="0ewMuvjCuJerf0oYQKk--158" style="rounded=0;orthogonalLoop=1;jettySize=auto;html=1;entryX=1;entryY=0.5;entryDx=0;entryDy=0;endArrow=none;startFill=0;" edge="1" parent="1" target="0ewMuvjCuJerf0oYQKk--157">
          <mxGeometry relative="1" as="geometry">
            <mxPoint x="1250" y="510" as="sourcePoint" />
            <mxPoint x="1090" y="823" as="targetPoint" />
          </mxGeometry>
        </mxCell>
        <mxCell id="0ewMuvjCuJerf0oYQKk--159" value="Request change mentee" style="ellipse;whiteSpace=wrap;html=1;" vertex="1" parent="1">
          <mxGeometry x="960" y="850" width="120" height="30" as="geometry" />
        </mxCell>
        <mxCell id="0ewMuvjCuJerf0oYQKk--161" style="rounded=0;orthogonalLoop=1;jettySize=auto;html=1;entryX=1;entryY=0.5;entryDx=0;entryDy=0;endArrow=none;startFill=0;" edge="1" parent="1" target="0ewMuvjCuJerf0oYQKk--159">
          <mxGeometry relative="1" as="geometry">
            <mxPoint x="1250" y="510" as="sourcePoint" />
            <mxPoint x="1090" y="920" as="targetPoint" />
          </mxGeometry>
        </mxCell>
        <mxCell id="0ewMuvjCuJerf0oYQKk--164" style="rounded=0;orthogonalLoop=1;jettySize=auto;html=1;entryX=1;entryY=0.5;entryDx=0;entryDy=0;endArrow=none;startFill=0;" edge="1" parent="1" target="0ewMuvjCuJerf0oYQKk--124">
          <mxGeometry relative="1" as="geometry">
            <mxPoint x="1250" y="750" as="sourcePoint" />
            <mxPoint x="1082" y="1070" as="targetPoint" />
          </mxGeometry>
        </mxCell>
      </root>
    </mxGraphModel>
  </diagram>
</mxfile>
